<?xml version="1.0" standalone="no"?>
<!DOCTYPE svg PUBLIC "-//W3C//DTD SVG 20010904//EN"
 "http://www.w3.org/TR/2001/REC-SVG-20010904/DTD/svg10.dtd">
<svg version="1.0" xmlns="http://www.w3.org/2000/svg"
 width="586.000000pt" height="586.000000pt" viewBox="0 0 586.000000 586.000000"
 preserveAspectRatio="xMidYMid meet">
<metadata>
Created by potrace 1.11, written by Peter Selinger 2001-2013
</metadata>
<g transform="translate(0.000000,586.000000) scale(0.100000,-0.100000)"
fill="#000000" stroke="none">
<path d="M266 5441 c-3 -5 150 -275 339 -601 190 -325 343 -596 340 -601 -3
-5 -217 -203 -475 -440 l-470 -431 0 -487 c0 -455 1 -493 20 -567 74 -290 321
-508 660 -581 77 -16 141 -18 670 -18 446 0 599 3 645 13 98 22 185 52 267 93
l77 39 55 -93 c30 -50 135 -231 235 -402 l181 -310 -59 -6 c-112 -11 -156 -75
-149 -213 4 -80 18 -110 72 -150 25 -19 44 -21 242 -24 l215 -3 -3 -62 -3 -62
-195 0 c-195 0 -195 0 -198 23 -3 20 -9 22 -69 22 l-66 0 6 -42 c6 -45 28 -81
71 -112 25 -20 43 -21 249 -24 249 -3 269 1 315 68 31 46 32 198 2 247 -39 64
-52 67 -290 73 l-215 5 0 60 0 60 77 3 c77 3 77 3 93 -28 20 -38 30 -38 50 0
15 29 17 30 95 30 74 0 79 -1 82 -22 3 -21 9 -23 66 -26 l62 -3 0 38 c0 45
-28 95 -67 120 -15 10 -53 20 -85 23 l-58 5 181 310 c100 171 205 352 235 402
l55 93 77 -39 c82 -41 169 -71 267 -93 46 -10 199 -13 645 -13 529 0 593 2
670 18 339 73 586 291 660 581 19 74 20 112 20 567 l0 488 -475 436 c-261 240
-475 438 -475 440 0 2 155 270 345 596 189 325 342 595 339 600 -3 5 -456 9
-1028 9 l-1023 0 -304 -525 c-166 -289 -306 -524 -311 -523 -4 2 -143 232
-308 513 -166 280 -306 515 -312 522 -8 10 -209 13 -1024 13 -567 0 -1015 -4
-1018 -9z m1025 -1779 l168 -287 -245 -3 c-134 -1 -354 -1 -489 0 l-244 3 317
291 c174 160 319 290 321 288 3 -2 80 -133 172 -292z m3827 -47 l262 -240
-245 -3 c-135 -1 -355 -1 -489 0 l-245 3 171 292 170 293 57 -53 c32 -28 175
-160 319 -292z"/>
<path d="M0 985 l0 -65 265 0 265 0 0 -65 0 -65 -265 0 -265 0 0 -136 c0 -161
14 -200 85 -234 38 -18 62 -20 308 -20 l267 0 0 268 c0 298 -3 315 -69 359
-33 23 -40 23 -312 23 l-279 0 0 -65z m530 -390 l0 -65 -197 2 -198 3 -3 63
-3 62 201 0 200 0 0 -65z"/>
<path d="M723 993 c12 -32 69 -177 127 -323 l105 -265 51 -3 52 -3 98 231 c54
127 101 227 106 222 4 -4 52 -106 107 -227 l99 -220 53 0 53 0 118 310 c64
171 117 316 118 323 0 10 -17 12 -67 10 l-67 -3 -75 -197 c-41 -109 -77 -198
-81 -198 -3 0 -47 89 -97 198 l-90 197 -74 3 -74 3 -90 -208 -89 -207 -14 35
c-8 19 -45 112 -84 207 l-70 172 -69 0 -68 0 22 -57z"/>
<path d="M1920 1032 c-22 -12 -44 -35 -58 -63 -22 -42 -23 -51 -20 -256 3
-232 5 -237 72 -287 26 -20 43 -21 307 -24 l279 -3 0 65 0 66 -262 2 -263 3
-3 63 -3 62 266 0 265 0 0 143 c0 159 -9 189 -72 227 -30 18 -51 20 -253 20
-194 0 -224 -2 -255 -18z m450 -177 l0 -65 -200 0 -200 0 0 58 c0 32 3 62 7
65 3 4 93 7 200 7 l193 0 0 -65z"/>
<path d="M3430 1028 c-66 -46 -71 -67 -68 -310 3 -201 5 -219 24 -244 50 -68
54 -69 292 -72 211 -3 218 -2 261 20 76 41 81 59 81 308 0 240 -5 259 -72 300
-30 18 -51 20 -259 20 -218 0 -227 -1 -259 -22z m458 -300 l-3 -193 -195 0
-195 0 -3 180 c-1 98 0 185 2 192 4 10 51 13 201 13 l195 0 -2 -192z"/>
<path d="M4130 725 l0 -326 63 3 62 3 3 258 2 258 143 -3 142 -3 3 -258 2
-258 63 3 62 3 3 258 2 258 143 -3 142 -3 3 -258 2 -258 63 3 62 3 0 270 c0
263 -1 271 -23 306 -42 69 -40 69 -516 69 l-426 0 0 -325z"/>
<path d="M5270 1028 c-65 -45 -70 -68 -70 -304 0 -202 1 -212 23 -244 12 -18
35 -43 50 -54 27 -20 42 -21 308 -24 l279 -3 0 65 0 66 -262 2 -263 3 -3 63
-3 62 266 0 265 0 0 143 c0 159 -9 189 -72 227 -30 18 -51 20 -259 20 -218 0
-227 -1 -259 -22z m460 -173 l0 -65 -200 0 -200 0 0 65 0 65 200 0 200 0 0
-65z"/>
</g>
</svg>
