<?xml version="1.0" standalone="no"?>
<!DOCTYPE svg PUBLIC "-//W3C//DTD SVG 20010904//EN"
 "http://www.w3.org/TR/2001/REC-SVG-20010904/DTD/svg10.dtd">
<svg version="1.0" xmlns="http://www.w3.org/2000/svg"
 width="1000.000000pt" height="1000.000000pt" viewBox="0 0 1000.000000 1000.000000"
 preserveAspectRatio="xMidYMid meet">
<metadata>
Created by potrace 1.11, written by Peter Selinger 2001-2013
</metadata>
<g transform="translate(0.000000,1000.000000) scale(0.100000,-0.100000)"
fill="#000000" stroke="none">
<path d="M3430 7849 c0 -8 1048 -1834 1152 -2006 l20 -33 -1027 0 c-598 0
-1025 4 -1023 9 2 5 148 142 325 305 l323 297 -28 47 c-15 27 -49 87 -77 135
-27 48 -52 87 -55 86 -3 0 -219 -197 -480 -438 l-475 -437 0 -499 c0 -563 0
-558 78 -710 31 -61 63 -102 131 -171 133 -133 271 -206 465 -246 87 -18 134
-19 700 -16 692 4 670 2 866 97 215 104 345 245 412 446 27 79 27 84 32 435
l6 355 56 -95 c31 -52 83 -141 115 -198 52 -91 60 -101 71 -85 7 9 59 97 115
195 56 98 106 178 110 178 4 0 8 -163 10 -362 3 -342 5 -367 26 -428 83 -247
312 -440 612 -516 70 -18 118 -19 705 -19 625 0 631 0 715 23 111 30 269 109
350 175 125 102 213 237 251 385 17 69 19 114 19 566 l0 491 -475 435 c-261
239 -478 434 -482 432 -10 -3 -152 -243 -153 -257 0 -6 147 -145 327 -310
l327 -300 -1023 -3 c-564 -1 -1026 0 -1028 2 -3 2 257 457 577 1011 320 554
584 1013 587 1021 4 12 -67 14 -483 12 l-489 -3 -296 -513 c-163 -282 -300
-517 -306 -523 -6 -6 -114 171 -313 516 l-303 525 -484 0 c-346 0 -483 -3
-483 -11z"/>
<path d="M2080 2910 l0 -60 263 -2 262 -3 3 -67 3 -68 -266 0 -265 0 0 -132
c0 -151 11 -187 69 -225 33 -23 40 -23 308 -23 l274 0 -3 279 -3 279 -25 27
c-50 54 -58 55 -350 55 l-270 0 0 -60z m530 -390 l0 -70 -202 2 -203 3 -3 68
-3 67 206 0 205 0 0 -70z"/>
<path d="M2862 2768 c44 -112 100 -256 126 -321 l45 -118 51 3 50 3 100 234
c77 178 102 229 109 215 4 -11 52 -116 106 -234 l97 -215 51 -3 50 -3 121 321
120 321 -65 -3 -66 -3 -77 -203 c-43 -112 -80 -205 -81 -207 -2 -1 -47 91 -99
206 l-95 209 -70 0 -70 0 -90 -210 c-49 -115 -91 -207 -93 -206 -1 2 -40 95
-86 207 l-83 204 -66 3 -65 3 80 -203z"/>
<path d="M4001 2953 c-67 -33 -71 -51 -71 -303 0 -334 -16 -320 379 -320 l271
0 0 60 0 60 -258 0 c-187 0 -261 3 -270 12 -7 7 -12 38 -12 70 l0 58 271 0
271 0 -4 138 c-4 155 -16 190 -78 223 -31 17 -59 19 -250 19 -180 0 -220 -3
-249 -17z m447 -115 c7 -7 12 -38 12 -70 l0 -58 -210 0 -210 0 0 58 c0 32 5
63 12 70 17 17 379 17 396 0z"/>
<path d="M4760 2952 c-22 -11 -44 -36 -58 -63 -20 -38 -23 -55 -20 -125 3 -65
9 -87 28 -113 39 -55 66 -61 288 -61 141 0 201 -3 210 -12 16 -16 16 -100 0
-116 -9 -9 -68 -12 -205 -12 l-193 0 -6 25 c-6 23 -10 25 -66 25 l-61 0 7 -41
c4 -23 16 -55 28 -72 37 -51 66 -57 299 -57 235 0 265 6 300 64 28 46 27 205
-1 251 -36 59 -64 65 -293 65 -178 0 -206 2 -211 16 -9 23 -7 97 2 112 7 9 54
12 203 10 190 -3 194 -3 204 -25 8 -20 17 -23 62 -23 l53 0 0 36 c0 48 -32 98
-74 118 -28 13 -72 16 -248 16 -187 0 -218 -2 -248 -18z"/>
<path d="M5522 2953 c-18 -9 -43 -30 -55 -47 -21 -30 -22 -40 -22 -256 0 -221
0 -226 24 -259 40 -56 66 -61 302 -61 236 0 262 6 299 65 18 30 20 49 20 255
0 326 6 320 -322 320 -176 0 -219 -3 -246 -17z m443 -303 l0 -195 -200 0 -200
0 -3 175 c-1 96 0 185 3 198 l5 22 198 -2 197 -3 0 -195z"/>
<path d="M6210 2650 l0 -320 60 0 60 0 2 258 3 257 145 0 145 0 3 -257 2 -258
60 0 60 0 2 258 3 257 145 0 145 0 3 -257 2 -258 61 0 60 0 -3 274 c-4 398 42
366 -535 366 l-423 0 0 -320z"/>
<path d="M7364 2956 c-17 -8 -42 -29 -55 -47 -24 -33 -24 -38 -24 -259 0 -221
0 -226 24 -259 41 -58 61 -61 356 -61 l265 0 0 60 0 60 -262 2 -263 3 -3 68
-3 67 266 0 265 0 0 141 c0 153 -6 175 -58 214 -25 18 -45 20 -252 22 -174 2
-232 0 -256 -11z m444 -178 l3 -68 -206 0 -205 0 0 54 c0 92 -14 87 209 84
l196 -3 3 -67z"/>
</g>
</svg>
